<?xml version="1.0" encoding="utf-8"?>
<!-- Generator: Adobe Illustrator 17.0.2, SVG Export Plug-In . SVG Version: 6.00 Build 0)  -->
<!DOCTYPE svg PUBLIC "-//W3C//DTD SVG 1.1//EN" "http://www.w3.org/Graphics/SVG/1.1/DTD/svg11.dtd">
<svg version="1.1" id="Calque_1" xmlns="http://www.w3.org/2000/svg" xmlns:xlink="http://www.w3.org/1999/xlink" x="0px" y="0px"
	 width="80px" height="35px" viewBox="0 0 80 35" enable-background="new 0 0 80 35" xml:space="preserve">
<path fill="#1D1D23" d="M12.059,19.879L2.145,2.153h8.359l3.403,7.225c0.966,2.059,1.806,4.327,1.806,4.327h0.084
	c0,0,0.84-2.268,1.806-4.327l3.361-7.225h8.359L19.41,19.879v12.309h-7.352V19.879z"/>
<path fill="#1D1D23" d="M33.192,22.82c0,0,3.402,3.108,7.184,3.108c1.512,0,3.15-0.589,3.15-2.395
	C43.526,19.963,30,20.089,30,10.848c0-5.545,4.663-9.2,10.628-9.2c6.469,0,9.661,3.403,9.661,3.403l-3.108,6.007
	c0,0-3.024-2.646-6.637-2.646c-1.513,0-3.193,0.672-3.193,2.353c0,3.781,13.526,3.108,13.526,12.602
	c0,4.999-3.822,9.325-10.585,9.325c-7.058,0-10.964-4.284-10.964-4.284L33.192,22.82z"/>
<path fill="#1D1D23" d="M56.552,22.82c0,0,3.402,3.108,7.184,3.108c1.512,0,3.15-0.589,3.15-2.395
	c0-3.571-13.526-3.445-13.526-12.686c0-5.545,4.662-9.2,10.628-9.2c6.469,0,9.661,3.403,9.661,3.403l-3.108,6.007
	c0,0-3.024-2.646-6.637-2.646c-1.513,0-3.193,0.672-3.193,2.353c0,3.781,13.526,3.108,13.526,12.602
	c0,4.999-3.822,9.325-10.585,9.325c-7.058,0-10.965-4.284-10.965-4.284L56.552,22.82z"/>
</svg>
